                            <svg width="16" height="16" viewBox="0 0 16 16" fill="none" xmlns="http://www.w3.org/2000/svg">
                                <g clip-path="url(#clip0_1_37)">
                                <path d="M14.2772 11.1462L13.1995 11.0709C12.4568 11.0189 11.7453 10.8682 11.0753 10.6336C10.7636 10.5246 10.4205 10.5503 10.1432 10.7297L8.49203 11.7977C6.62665 10.6763 5.15294 8.98666 4.30775 6.97823L5.59449 5.49272C5.81108 5.24241 5.88405 4.90592 5.81895 4.58146C5.68021 3.88884 5.63038 3.16463 5.68222 2.42324L5.75758 1.34558C5.79903 0.752807 5.35014 0.234169 4.5348 0.177154L3.13883 0.0795385C1.94384 -0.0040231 0.913528 0.906922 0.831568 2.10175C0.342766 9.22794 5.71791 15.4113 12.8428 15.9191C14.0374 16.0042 15.0829 15.1105 15.1664 13.9157L15.2795 12.2992C15.3209 11.7064 14.8699 11.1877 14.2772 11.1462Z" fill="white"/>
                                </g>
                                <defs>
                                <clipPath id="clip0_1_37">
                                <rect width="16" height="16" fill="white"/>
                                </clipPath>
                                </defs>
                                </svg>