                            <svg width="34" height="34" viewBox="0 0 34 34" fill="none" xmlns="http://www.w3.org/2000/svg">
                                <path fill-rule="evenodd" clip-rule="evenodd" d="M25.1746 18.9245C25.9264 19.7351 26.72 20.498 27.3944 21.3905C27.6923 21.787 27.9744 22.1963 28.1901 22.6566C28.4958 23.3109 28.2189 24.0309 27.6876 24.07L24.3855 24.0683C23.5338 24.1463 22.8544 23.7677 22.2832 23.1246C21.826 22.6102 21.4026 22.063 20.963 21.5313C20.7828 21.314 20.5941 21.1094 20.3687 20.9479C19.9179 20.6246 19.5266 20.7237 19.2691 21.2429C19.0067 21.771 18.9472 22.3558 18.9214 22.9444C18.886 23.8032 18.651 24.0289 17.87 24.0683C16.2007 24.1551 14.6165 23.8763 13.1448 22.9463C11.8474 22.1265 10.8412 20.969 9.9655 19.6586C8.26043 17.1072 6.95469 14.3036 5.78115 11.4214C5.51698 10.772 5.71018 10.4235 6.35891 10.4111C7.43616 10.388 8.51326 10.3896 9.59179 10.4095C10.0296 10.4165 10.3195 10.6939 10.4885 11.1507C11.0714 12.7334 11.7845 14.2393 12.6797 15.635C12.9181 16.0066 13.1611 16.3782 13.5073 16.6398C13.8902 16.9294 14.1818 16.8334 14.3619 16.3623C14.4762 16.0635 14.5264 15.7418 14.5521 15.4218C14.6374 14.321 14.6486 13.2222 14.499 12.1254C14.4071 11.4408 14.058 10.9976 13.4395 10.8681C13.1238 10.802 13.1708 10.6723 13.3236 10.4734C13.5891 10.1302 13.8387 9.91663 14.3364 9.91663H18.0683C18.6558 10.0447 18.7863 10.3362 18.8667 10.9891L18.8699 15.5673C18.8635 15.8202 18.9842 16.5701 19.3964 16.7375C19.7264 16.8565 19.9438 16.565 20.1417 16.334C21.0352 15.2866 21.673 14.0488 22.2427 12.7672C22.4955 12.2036 22.713 11.6183 22.9237 11.0335C23.0798 10.5995 23.3247 10.386 23.7673 10.3955L27.359 10.399C27.4655 10.399 27.5733 10.4007 27.6764 10.4202C28.2816 10.5342 28.4475 10.8217 28.2605 11.4744C27.966 12.4985 27.393 13.3519 26.8327 14.2093C26.2337 15.1247 25.5931 16.0087 24.9991 16.9294C24.4532 17.7703 24.4966 18.1942 25.1746 18.9245Z" fill="white"/>
                                </svg>